<svg width="29" height="30" viewBox="0 0 29 30" fill="none" xmlns="http://www.w3.org/2000/svg">
<path fill-rule="evenodd" clip-rule="evenodd" d="M9.3302 0H19.9825C24.8844 0 28.8595 4.19812 28.8595 9.375V20.625C28.8595 25.8019 24.8844 30 19.9825 30H9.3302C4.42835 30 0.453247 25.8019 0.453247 20.625V9.375C0.453247 4.19812 4.42835 0 9.3302 0ZM19.9824 27.1875C23.4089 27.1875 26.1963 24.2437 26.1963 20.625V9.375C26.1963 5.75625 23.4089 2.8125 19.9824 2.8125H9.33008C5.90357 2.8125 3.11621 5.75625 3.11621 9.375V20.625C3.11621 24.2437 5.90357 27.1875 9.33008 27.1875H19.9824Z" fill="white"/>
<path fill-rule="evenodd" clip-rule="evenodd" d="M7.55493 15C7.55493 10.8581 10.7346 7.5 14.6564 7.5C18.5782 7.5 21.7579 10.8581 21.7579 15C21.7579 19.1419 18.5782 22.5 14.6564 22.5C10.7346 22.5 7.55493 19.1419 7.55493 15ZM10.2178 15C10.2178 17.5837 12.2098 19.6875 14.6562 19.6875C17.1027 19.6875 19.0947 17.5837 19.0947 15C19.0947 12.4144 17.1027 10.3125 14.6562 10.3125C12.2098 10.3125 10.2178 12.4144 10.2178 15Z" fill="white"/>
<ellipse cx="22.2905" cy="6.93746" rx="0.94635" ry="0.999375" fill="white"/>
</svg>
