<svg width="29" height="26" viewBox="0 0 29 26" fill="none" xmlns="http://www.w3.org/2000/svg">
<path d="M28.8053 3.61289C27.7489 4.10226 26.6233 4.42664 25.4498 4.58414C26.6571 3.82289 27.5785 2.62664 28.0117 1.18476C26.8861 1.89351 25.6433 2.39414 24.3189 2.67351C23.2501 1.47164 21.7268 0.727264 20.065 0.727264C16.8409 0.727264 14.2453 3.49101 14.2453 6.87914C14.2453 7.36664 14.2844 7.83539 14.3802 8.28164C9.53876 8.03226 5.25474 5.58164 2.37683 1.84851C1.8744 2.76914 1.57968 3.82289 1.57968 4.95726C1.57968 7.08726 2.61829 8.97539 4.16643 10.0685C3.2308 10.0498 2.31292 9.76289 1.5353 9.31101C1.5353 9.32976 1.5353 9.35414 1.5353 9.37851C1.5353 12.3673 3.55392 14.8498 6.20102 15.4216C5.72699 15.5585 5.21036 15.6241 4.67419 15.6241C4.30136 15.6241 3.92497 15.6016 3.57167 15.5191C4.32621 17.9548 6.46733 19.7454 9.01324 19.8035C7.03191 21.4404 4.51618 22.4266 1.79273 22.4266C1.31515 22.4266 0.857099 22.4041 0.399048 22.3423C2.97869 24.0991 6.03591 25.1023 9.33281 25.1023C20.0491 25.1023 25.9079 15.7273 25.9079 7.60101C25.9079 7.32914 25.899 7.06664 25.8866 6.80601C27.0423 5.93976 28.0135 4.85789 28.8053 3.61289Z" fill="white"/>
</svg>
